<svg width="24" height="24" viewBox="0 0 24 24" fill="none" xmlns="http://www.w3.org/2000/svg">
<path d="M7.5 7.5H6.75C6.15326 7.5 5.58097 7.73705 5.15901 8.15901C4.73705 8.58097 4.5 9.15326 4.5 9.75V17.25C4.5 17.8467 4.73705 18.419 5.15901 18.841C5.58097 19.2629 6.15326 19.5 6.75 19.5H14.25C14.8467 19.5 15.419 19.2629 15.841 18.841C16.2629 18.419 16.5 17.8467 16.5 17.25V9.75C16.5 9.15326 16.2629 8.58097 15.841 8.15901C15.419 7.73705 14.8467 7.5 14.25 7.5H13.5M7.5 11.25L10.5 14.25M10.5 14.25L13.5 11.25M10.5 14.25V1.5M16.5 10.5H17.25C17.8467 10.5 18.419 10.7371 18.841 11.159C19.2629 11.581 19.5 12.1533 19.5 12.75V20.25C19.5 20.8467 19.2629 21.419 18.841 21.841C18.419 22.2629 17.8467 22.5 17.25 22.5H9.75C9.15326 22.5 8.58097 22.2629 8.15901 21.841C7.73705 21.419 7.5 20.8467 7.5 20.25V19.5" stroke="#496FF9" stroke-width="1.5" stroke-linecap="round" stroke-linejoin="round"/>
</svg>
