<svg width="101" height="101" viewBox="0 0 101 101" fill="none" xmlns="http://www.w3.org/2000/svg">
<path fill-rule="evenodd" clip-rule="evenodd" d="M50.5 4.20834C24.9344 4.20834 4.20837 24.9344 4.20837 50.5C4.20837 76.0656 24.9344 96.7917 50.5 96.7917C76.0657 96.7917 96.7917 76.0656 96.7917 50.5C96.7917 24.9344 76.0657 4.20834 50.5 4.20834ZM70.5654 42.6725C70.9349 42.2502 71.2161 41.7582 71.3927 41.2255C71.5692 40.6929 71.6374 40.1303 71.5934 39.5709C71.5493 39.0115 71.3937 38.4665 71.1359 37.9681C70.8781 37.4697 70.5232 37.0279 70.0921 36.6687C69.6611 36.3094 69.1625 36.04 68.6257 35.8763C68.089 35.7126 67.525 35.6579 66.9668 35.7154C66.4086 35.7729 65.8675 35.9415 65.3754 36.2112C64.8833 36.4809 64.4502 36.8463 64.1014 37.2858L46.0055 58.9966L36.642 49.6289C35.8483 48.8623 34.7853 48.4381 33.6819 48.4477C32.5784 48.4573 31.5229 48.8999 30.7427 49.6801C29.9624 50.4604 29.5198 51.5159 29.5102 52.6193C29.5007 53.7227 29.9248 54.7858 30.6914 55.5795L43.3164 68.2045C43.7299 68.6177 44.225 68.9403 44.77 69.1516C45.3151 69.3629 45.8982 69.4583 46.4822 69.4318C47.0662 69.4053 47.6383 69.2574 48.1619 68.9975C48.6856 68.7377 49.1494 68.3715 49.5237 67.9225L70.5654 42.6725Z" fill="#61FF39"/>
</svg>
