<svg width="50" height="50" viewBox="0 0 50 50" fill="none" xmlns="http://www.w3.org/2000/svg">
<path d="M18.75 35.9375V38.0354C18.7501 38.8565 18.5884 39.6695 18.2742 40.428C17.96 41.1866 17.4994 41.8758 16.9188 42.4562L15.625 43.75H34.375L33.0812 42.4562C32.5006 41.8758 32.04 41.1866 31.7258 40.428C31.4116 39.6695 31.2499 38.8565 31.25 38.0354V35.9375M43.75 10.9375V31.25C43.75 32.4932 43.2561 33.6855 42.3771 34.5646C41.498 35.4436 40.3057 35.9375 39.0625 35.9375H10.9375C9.6943 35.9375 8.50201 35.4436 7.62294 34.5646C6.74386 33.6855 6.25 32.4932 6.25 31.25V10.9375M43.75 10.9375C43.75 9.6943 43.2561 8.50201 42.3771 7.62294C41.498 6.74386 40.3057 6.25 39.0625 6.25H10.9375C9.6943 6.25 8.50201 6.74386 7.62294 7.62294C6.74386 8.50201 6.25 9.6943 6.25 10.9375M43.75 10.9375V25C43.75 26.2432 43.2561 27.4355 42.3771 28.3146C41.498 29.1936 40.3057 29.6875 39.0625 29.6875H10.9375C9.6943 29.6875 8.50201 29.1936 7.62294 28.3146C6.74386 27.4355 6.25 26.2432 6.25 25V10.9375" stroke="#496FF9" stroke-width="2" stroke-linecap="round" stroke-linejoin="round"/>
</svg>
