<svg width="24" height="24" viewBox="0 0 24 24" fill="none" xmlns="http://www.w3.org/2000/svg">
<path d="M10.5 1.5H8.25C7.65326 1.5 7.08097 1.73705 6.65901 2.15901C6.23705 2.58097 6 3.15326 6 3.75V20.25C6 20.8467 6.23705 21.419 6.65901 21.841C7.08097 22.2629 7.65326 22.5 8.25 22.5H15.75C16.3467 22.5 16.919 22.2629 17.341 21.841C17.7629 21.419 18 20.8467 18 20.25V3.75C18 3.15326 17.7629 2.58097 17.341 2.15901C16.919 1.73705 16.3467 1.5 15.75 1.5H13.5M10.5 1.5V3H13.5V1.5M10.5 1.5H13.5M10.5 20.25H13.5" stroke="#496FF9" stroke-width="1.5" stroke-linecap="round" stroke-linejoin="round"/>
</svg>
