<svg width="50" height="46" viewBox="0 0 50 46" fill="none" xmlns="http://www.w3.org/2000/svg">
<path d="M21.875 2.875H17.1875C15.9443 2.875 14.752 3.32935 13.8729 4.1381C12.9939 4.94685 12.5 6.04375 12.5 7.1875V38.8125C12.5 39.9562 12.9939 41.0531 13.8729 41.8619C14.752 42.6706 15.9443 43.125 17.1875 43.125H32.8125C34.0557 43.125 35.248 42.6706 36.1271 41.8619C37.0061 41.0531 37.5 39.9562 37.5 38.8125V7.1875C37.5 6.04375 37.0061 4.94685 36.1271 4.1381C35.248 3.32935 34.0557 2.875 32.8125 2.875H28.125M21.875 2.875V5.75H28.125V2.875M21.875 2.875H28.125M21.875 38.8125H28.125" stroke="#496FF9" stroke-width="2" stroke-linecap="round" stroke-linejoin="round"/>
</svg>
