<svg width="139" height="132" viewBox="0 0 139 132" fill="none" xmlns="http://www.w3.org/2000/svg">
<circle cx="4.63636" cy="4.63636" r="4.63636" fill="#496FF9"/>
<circle cx="23.1818" cy="4.63636" r="4.63636" fill="#496FF9"/>
<circle cx="41.7273" cy="4.63636" r="4.63636" fill="#496FF9"/>
<circle cx="60.2728" cy="4.63636" r="4.63636" fill="#496FF9"/>
<circle cx="78.8182" cy="4.63636" r="4.63636" fill="#496FF9"/>
<circle cx="97.3637" cy="4.63636" r="4.63636" fill="#496FF9"/>
<circle cx="4.63636" cy="19.8701" r="4.63636" fill="#496FF9"/>
<circle cx="23.1818" cy="19.8701" r="4.63636" fill="#496FF9"/>
<circle cx="41.7273" cy="19.8701" r="4.63636" fill="#496FF9"/>
<circle cx="60.2728" cy="19.8701" r="4.63636" fill="#496FF9"/>
<circle cx="78.8182" cy="19.8701" r="4.63636" fill="#496FF9"/>
<circle cx="97.3637" cy="19.8701" r="4.63636" fill="#496FF9"/>
<circle cx="4.63636" cy="35.1039" r="4.63636" fill="#496FF9"/>
<circle cx="23.1818" cy="35.1039" r="4.63636" fill="#496FF9"/>
<circle cx="41.7273" cy="35.1039" r="4.63636" fill="#496FF9"/>
<circle cx="60.2728" cy="35.1039" r="4.63636" fill="#496FF9"/>
<circle cx="78.8182" cy="35.1039" r="4.63636" fill="#496FF9"/>
<circle cx="97.3637" cy="35.1039" r="4.63636" fill="#496FF9"/>
<circle cx="4.63636" cy="50.3377" r="4.63636" fill="#496FF9"/>
<circle cx="23.1818" cy="50.3377" r="4.63636" fill="#496FF9"/>
<circle cx="41.7273" cy="50.3377" r="4.63636" fill="#496FF9"/>
<circle cx="60.2728" cy="50.3377" r="4.63636" fill="#496FF9"/>
<circle cx="78.8182" cy="50.3377" r="4.63636" fill="#496FF9"/>
<circle cx="97.3637" cy="50.3377" r="4.63636" fill="#496FF9"/>
<circle cx="4.63636" cy="65.5714" r="4.63636" fill="#496FF9"/>
<circle cx="23.1818" cy="65.5714" r="4.63636" fill="#496FF9"/>
<circle cx="41.7273" cy="65.5714" r="4.63636" fill="#496FF9"/>
<circle cx="60.2728" cy="65.5714" r="4.63636" fill="#496FF9"/>
<circle cx="78.8182" cy="65.5714" r="4.63636" fill="#496FF9"/>
<circle cx="97.3637" cy="65.5714" r="4.63636" fill="#496FF9"/>
<circle cx="4.63636" cy="80.8052" r="4.63636" fill="#496FF9"/>
<circle cx="23.1818" cy="80.8052" r="4.63636" fill="#496FF9"/>
<circle cx="41.7273" cy="80.8052" r="4.63636" fill="#496FF9"/>
<circle cx="60.2728" cy="80.8052" r="4.63636" fill="#496FF9"/>
<circle cx="78.8182" cy="80.8052" r="4.63636" fill="#496FF9"/>
<circle cx="97.3637" cy="80.8052" r="4.63636" fill="#496FF9"/>
<circle cx="4.63636" cy="96.039" r="4.63636" fill="#496FF9"/>
<circle cx="23.1818" cy="96.039" r="4.63636" fill="#496FF9"/>
<circle cx="41.7273" cy="96.039" r="4.63636" fill="#496FF9"/>
<circle cx="60.2728" cy="96.039" r="4.63636" fill="#496FF9"/>
<circle cx="78.8182" cy="96.039" r="4.63636" fill="#496FF9"/>
<circle cx="97.3637" cy="96.039" r="4.63636" fill="#496FF9"/>
<circle cx="115.636" cy="4.63636" r="4.63636" fill="#496FF9"/>
<circle cx="134.182" cy="4.63636" r="4.63636" fill="#496FF9"/>
<circle cx="115.636" cy="19.8701" r="4.63636" fill="#496FF9"/>
<circle cx="134.182" cy="19.8701" r="4.63636" fill="#496FF9"/>
<circle cx="115.636" cy="35.1039" r="4.63636" fill="#496FF9"/>
<circle cx="134.182" cy="35.1039" r="4.63636" fill="#496FF9"/>
<circle cx="115.636" cy="50.3377" r="4.63636" fill="#496FF9"/>
<circle cx="134.182" cy="50.3377" r="4.63636" fill="#496FF9"/>
<circle cx="115.636" cy="65.5714" r="4.63636" fill="#496FF9"/>
<circle cx="134.182" cy="65.5714" r="4.63636" fill="#496FF9"/>
<circle cx="115.636" cy="80.8052" r="4.63636" fill="#496FF9"/>
<circle cx="134.182" cy="80.8052" r="4.63636" fill="#496FF9"/>
<circle cx="115.636" cy="96.039" r="4.63636" fill="#496FF9"/>
<circle cx="134.182" cy="96.039" r="4.63636" fill="#496FF9"/>
<circle cx="4.63636" cy="111.636" r="4.63636" fill="#496FF9"/>
<circle cx="23.1818" cy="111.636" r="4.63636" fill="#496FF9"/>
<circle cx="41.7273" cy="111.636" r="4.63636" fill="#496FF9"/>
<circle cx="60.2728" cy="111.636" r="4.63636" fill="#496FF9"/>
<circle cx="78.8182" cy="111.636" r="4.63636" fill="#496FF9"/>
<circle cx="97.3637" cy="111.636" r="4.63636" fill="#496FF9"/>
<circle cx="4.63636" cy="126.87" r="4.63636" fill="#496FF9"/>
<circle cx="23.1818" cy="126.87" r="4.63636" fill="#496FF9"/>
<circle cx="41.7273" cy="126.87" r="4.63636" fill="#496FF9"/>
<circle cx="60.2728" cy="126.87" r="4.63636" fill="#496FF9"/>
<circle cx="78.8182" cy="126.87" r="4.63636" fill="#496FF9"/>
<circle cx="97.3637" cy="126.87" r="4.63636" fill="#496FF9"/>
<circle cx="115.636" cy="111.636" r="4.63636" fill="#496FF9"/>
<circle cx="134.182" cy="111.636" r="4.63636" fill="#496FF9"/>
<circle cx="115.636" cy="126.87" r="4.63636" fill="#496FF9"/>
<circle cx="134.182" cy="126.87" r="4.63636" fill="#496FF9"/>
</svg>
