<svg width="24" height="24" viewBox="0 0 24 24" fill="none" xmlns="http://www.w3.org/2000/svg">
<path d="M12.75 3.03004V3.59804C12.75 3.93204 12.898 4.24804 13.155 4.46204L14.223 5.35204C14.665 5.72104 14.758 6.36204 14.439 6.84204L13.929 7.60804C13.6513 8.02425 13.2427 8.33601 12.768 8.49404L12.625 8.54204C12.4636 8.59599 12.3169 8.6864 12.1961 8.80627C12.0754 8.92613 11.9839 9.07221 11.9288 9.23317C11.8736 9.39413 11.8563 9.56563 11.8782 9.73435C11.9001 9.90307 11.9606 10.0645 12.055 10.206C12.142 10.3368 12.2002 10.4845 12.2258 10.6395C12.2514 10.7944 12.2438 10.953 12.2034 11.1048C12.163 11.2566 12.0908 11.398 11.9916 11.5198C11.8924 11.6415 11.7685 11.7408 11.628 11.811L9 13.125L9.423 14.184C9.50831 14.3991 9.51272 14.6379 9.4354 14.8559C9.35809 15.074 9.2043 15.2567 9.00256 15.37C8.80082 15.4833 8.56483 15.5196 8.33836 15.4722C8.11188 15.4248 7.9103 15.2968 7.771 15.112L7.092 14.206C6.97692 14.0527 6.82456 13.9313 6.64938 13.8534C6.4742 13.7754 6.28201 13.7436 6.09106 13.7608C5.90011 13.7781 5.71673 13.8438 5.55833 13.9518C5.39993 14.0598 5.27176 14.2066 5.186 14.378L4.5 15.75L3.888 15.903M12.75 3.03104C11.1691 2.89837 9.58113 3.18597 8.14714 3.86469C6.71315 4.5434 5.48405 5.58912 4.58439 6.89587C3.68473 8.20262 3.14648 9.72396 3.02419 11.3057C2.90189 12.8875 3.1999 14.4735 3.888 15.903M12.75 3.03104C14.3177 3.16178 15.8237 3.70116 17.118 4.5954C18.4122 5.48964 19.4495 6.7075 20.1263 8.12757C20.8032 9.54765 21.096 11.1203 20.9756 12.6889C20.8552 14.2574 20.3257 15.7669 19.44 17.067M19.44 17.067L19.263 16.538C19.1136 16.0901 18.8269 15.7004 18.4438 15.4244C18.0606 15.1484 17.6003 14.9999 17.128 15H16.5L16.176 14.676C16.0133 14.513 15.8141 14.391 15.5949 14.3201C15.3757 14.2492 15.1428 14.2315 14.9154 14.2683C14.6881 14.3051 14.4727 14.3955 14.2871 14.5319C14.1015 14.6684 13.951 14.847 13.848 15.053L13.812 15.126C13.7138 15.3227 13.5758 15.4967 13.4067 15.6372C13.2377 15.7777 13.0413 15.8815 12.83 15.942L11.84 16.224C11.29 16.381 10.946 16.926 11.04 17.491L11.113 17.929C11.193 18.403 11.603 18.75 12.083 18.75C12.929 18.75 13.681 19.292 13.948 20.095L14.163 20.738M19.439 17.068C18.1911 18.8982 16.3129 20.2047 14.163 20.738M14.163 20.738C12.1555 21.2354 10.038 21.0262 8.16669 20.1456C6.29536 19.265 4.78441 17.7668 3.888 15.903M15.75 9.00004C15.75 9.89604 15.357 10.7 14.734 11.25" stroke="#496FF9" stroke-width="1.5" stroke-linecap="round" stroke-linejoin="round"/>
</svg>
