<svg width="24" height="24" viewBox="0 0 24 24" fill="none" xmlns="http://www.w3.org/2000/svg">
<path d="M15.75 6C15.75 6.99456 15.3549 7.94839 14.6516 8.65165C13.9484 9.35491 12.9946 9.75 12 9.75C11.0054 9.75 10.0516 9.35491 9.34835 8.65165C8.64509 7.94839 8.25 6.99456 8.25 6C8.25 5.00544 8.64509 4.05161 9.34835 3.34835C10.0516 2.64509 11.0054 2.25 12 2.25C12.9946 2.25 13.9484 2.64509 14.6516 3.34835C15.3549 4.05161 15.75 5.00544 15.75 6V6ZM4.501 20.118C4.53313 18.1504 5.33734 16.2742 6.74018 14.894C8.14302 13.5139 10.0321 12.7405 12 12.7405C13.9679 12.7405 15.857 13.5139 17.2598 14.894C18.6627 16.2742 19.4669 18.1504 19.499 20.118C17.1464 21.1968 14.5881 21.7535 12 21.75C9.324 21.75 6.784 21.166 4.501 20.118Z" stroke="#496FF9" stroke-width="1.5" stroke-linecap="round" stroke-linejoin="round"/>
</svg>
