<svg width="20" height="20" viewBox="0 0 20 20" fill="none" xmlns="http://www.w3.org/2000/svg">
<g clip-path="url(#clip0_5_53)">
<path fill-rule="evenodd" clip-rule="evenodd" d="M14.5125 11.985C14.2642 11.8608 13.0467 11.2625 12.82 11.1792C12.5933 11.0967 12.4283 11.0558 12.2625 11.3042C12.0975 11.5508 11.6233 12.1092 11.4792 12.2742C11.3342 12.44 11.19 12.46 10.9425 12.3367C10.695 12.2117 9.89667 11.9508 8.95083 11.1075C8.215 10.4508 7.7175 9.64 7.57333 9.39167C7.42917 9.14417 7.5575 9.01 7.68167 8.88667C7.79333 8.77584 7.92917 8.5975 8.05333 8.45334C8.1775 8.30834 8.21833 8.205 8.30083 8.03917C8.38417 7.87417 8.3425 7.73 8.28 7.60584C8.21833 7.48167 7.72333 6.2625 7.51667 5.76667C7.31583 5.28417 7.11167 5.35 6.96 5.34167C6.815 5.335 6.65 5.33334 6.485 5.33334C6.32 5.33334 6.05167 5.395 5.825 5.64334C5.5975 5.89084 4.95833 6.49 4.95833 7.70917C4.95833 8.9275 5.845 10.105 5.96917 10.2708C6.09333 10.4358 7.715 12.9375 10.1992 14.01C10.7908 14.265 11.2517 14.4175 11.6108 14.5308C12.2042 14.72 12.7442 14.6933 13.1708 14.6292C13.6458 14.5583 14.6358 14.03 14.8425 13.4517C15.0483 12.8733 15.0483 12.3775 14.9867 12.2742C14.925 12.1708 14.76 12.1092 14.5117 11.985H14.5125ZM9.99417 18.1542H9.99083C8.51536 18.1544 7.06698 17.7578 5.7975 17.0058L5.4975 16.8275L2.37917 17.6458L3.21167 14.6058L3.01583 14.2942C2.19095 12.9811 1.75441 11.4615 1.75667 9.91084C1.75833 5.36917 5.45333 1.67417 9.9975 1.67417C12.1975 1.67417 14.2658 2.5325 15.8208 4.08917C16.5878 4.85299 17.1957 5.76131 17.6094 6.76159C18.0231 7.76186 18.2343 8.83424 18.2308 9.91667C18.2292 14.4583 14.5342 18.1542 9.99417 18.1542ZM17.0042 2.90667C16.086 1.98244 14.9935 1.24962 13.7901 0.750671C12.5866 0.251723 11.2961 -0.00342739 9.99333 3.63038e-06C4.53167 3.63038e-06 0.085 4.44584 0.0833333 9.91C0.0808025 11.649 0.536979 13.3578 1.40583 14.8642L0 20L5.25333 18.6217C6.70656 19.4134 8.33508 19.8283 9.99 19.8283H9.99417C15.4558 19.8283 19.9025 15.3825 19.9042 9.9175C19.9082 8.61523 19.654 7.32509 19.1562 6.1217C18.6584 4.91831 17.927 3.82556 17.0042 2.90667Z" fill="white"/>
</g>
<defs>
<clipPath id="clip0_5_53">
<rect width="20" height="20" fill="white"/>
</clipPath>
</defs>
</svg>
